<!-- Generated by IcoMoon.io -->
<svg version="1.1" xmlns="http://www.w3.org/2000/svg" width="1024" height="1024" viewBox="0 0 1024 1024" fill="currentColor">
<title></title>
<g id="icomoon-ignore">
</g>
<path d="M144.768 928.256l143.403-146.688 5.248-3.413c6.187-6.217 10.012-14.79 10.012-24.256s-3.825-18.039-10.013-24.257l0.001 0.001c-114.347-124.672-120.576-316.715-14.507-448.811 106.027-132.096 291.413-163.243 433.195-72.789s195.968 274.432 126.635 429.952c-69.333 155.52-240.725 234.24-400.469 184.064-2.952-0.952-6.348-1.5-9.873-1.5-8.942 0-17.060 3.531-23.034 9.276l0.011-0.010c-6.64 6.391-10.764 15.355-10.764 25.282 0 2.745 0.315 5.416 0.912 7.979l-0.046-0.237c2.701 12.024 11.442 21.515 22.798 25.233l0.242 0.069c189.525 59.989 393.515-30.635 480-213.333 86.443-182.699 29.44-402.56-134.144-517.376-163.627-114.901-384.725-90.24-520.32 58.027-135.552 148.224-144.896 375.467-21.973 534.827l-126.976 129.877c-6.045 6.273-9.769 14.819-9.769 24.235s3.724 17.962 9.78 24.245l-0.010-0.011c6.076 6.198 14.536 10.040 23.893 10.040s17.817-3.842 23.888-10.035l0.005-0.005 1.877-0.341z"></path>
</svg>
